<svg width="19pt" height="11pt" viewBox="0 0 19 11" xmlns="http://www.w3.org/2000/svg"><g id="fontsvg1692278964778" stroke-linecap="round" fill-rule="evenodd" fill="#000000"><path d="M 1.875 8.438 L 0 8.438 L 0 0.938 L 0.938 0.938 L 0.938 0 L 4.688 0 L 4.688 0.938 L 5.625 0.938 L 5.625 8.438 L 3.75 8.438 L 3.75 5.625 L 1.875 5.625 L 1.875 8.438 Z M 15 10.313 L 13.125 10.313 L 13.125 1.875 L 17.813 1.875 L 17.813 2.813 L 18.75 2.813 L 18.75 7.5 L 17.813 7.5 L 17.813 8.438 L 15 8.438 L 15 10.313 Z M 11.25 8.438 L 7.5 8.438 L 7.5 7.5 L 8.438 7.5 L 8.438 0.938 L 7.5 0.938 L 7.5 0 L 10.313 0 L 10.313 7.5 L 11.25 7.5 L 11.25 8.438 Z M 15 7.5 L 16.875 7.5 L 16.875 2.813 L 15 2.813 L 15 7.5 Z M 1.875 4.688 L 3.75 4.688 L 3.75 0.938 L 1.875 0.938 L 1.875 4.688 Z" vector-effect="non-scaling-stroke"/></g></svg>